<svg width="180" height="71" viewBox="0 0 180 71" fill="none" xmlns="http://www.w3.org/2000/svg">
<path d="M39.6604 43.9654V13.7762L27 35.8663L39.6604 43.9654Z" fill="#FFE94D"/>
<path d="M39.6604 13.7762L52.3043 35.8663L39.6604 43.9654V13.7762Z" fill="#FF9C92"/>
<path d="M27 38.472L39.6604 46.5877V57.0602" fill="#53D3E0"/>
<path d="M52.3043 38.472L39.6604 46.5877V57.0602" fill="#5A9DED"/>
<path opacity="0.75" d="M39.6604 28.6302L27 35.8663L39.6604 43.9654V28.6302Z" fill="#88D848"/>
<path opacity="0.75" d="M39.6604 28.6302L52.3043 35.8663L39.6604 43.9654V28.6302Z" fill="#CC71C3"/>
<path d="M60.508 27.8834C60.5575 29.4434 61.6799 30.1903 62.9674 30.1903C63.7927 30.1903 64.6016 29.8584 64.9317 29.0949H67.0775C66.5988 31.1197 64.7666 32.1819 62.8684 32.1819C60.574 32.1819 58.2961 30.6218 58.2961 27.2195C58.2961 23.9334 60.4585 22.2405 62.8849 22.2405C65.1958 22.2405 67.1601 23.784 67.1601 26.9374V27.8834H60.508ZM60.574 26.1905H64.8987C64.8987 24.9292 64.0238 24.2155 62.8519 24.2155C61.7955 24.2155 60.7721 24.7964 60.574 26.1905ZM74.4229 31.9661H72.9208C71.1216 31.9661 69.9992 31.4018 69.9992 28.846V24.4811H68.266V22.4065H69.9992V20.2489L72.2935 19.6183V22.4065H74.1918V24.4811H72.2935V28.7796C72.2935 29.4434 72.4751 29.9247 73.4325 29.9247H74.4064V31.9661H74.4229ZM84.987 25.7922V31.9661H82.6926V25.9914C82.6926 24.9126 82.0488 24.2819 80.9099 24.2819C79.5398 24.2819 78.8136 25.2279 78.8136 26.788V31.9495H76.5192V18.7552H78.8301V23.8172C79.3583 22.9044 80.1011 22.2405 81.7187 22.2405C83.881 22.2239 84.987 23.5185 84.987 25.7922ZM89.4272 27.8834C89.4767 29.4434 90.5991 30.1903 91.8866 30.1903C92.7119 30.1903 93.5208 29.8584 93.8509 29.0949H95.9967C95.518 31.1197 93.6858 32.1819 91.7876 32.1819C89.4932 32.1819 87.2153 30.6218 87.2153 27.2195C87.2153 23.9334 89.3777 22.2405 91.8041 22.2405C94.115 22.2405 96.0793 23.784 96.0793 26.9374V27.8834H89.4272ZM89.4767 26.1905H93.8014C93.8014 24.9292 92.9265 24.2155 91.7546 24.2155C90.6982 24.2155 89.6913 24.7964 89.4767 26.1905ZM103.755 24.5309H103.144C101.543 24.5309 100.668 25.4105 100.668 27.2859V31.9661H98.3736V22.4065H100.652V23.8172C101.13 22.7716 102.022 22.2903 103.127 22.2903H103.755V24.5309ZM107.089 27.8834C107.139 29.4434 108.261 30.1903 109.548 30.1903C110.374 30.1903 111.183 29.8584 111.513 29.0949H113.659C113.18 31.1197 111.348 32.1819 109.449 32.1819C107.155 32.1819 104.877 30.6218 104.877 27.2195C104.877 23.9334 107.039 22.2405 109.466 22.2405C111.777 22.2405 113.741 23.784 113.741 26.9374V27.8834H107.089ZM107.139 26.1905H111.463C111.463 24.9292 110.588 24.2155 109.416 24.2155C108.36 24.2155 107.337 24.7964 107.139 26.1905ZM124.239 31.9661H121.994V30.6052C121.433 31.5014 120.657 32.0657 119.353 32.0657C117.356 32.0657 115.936 30.7878 115.936 28.3315V22.4065H118.231V28.1821C118.231 29.4766 118.908 30.0409 119.898 30.0409C120.971 30.0409 121.945 29.2443 121.945 27.0369V22.4065H124.239V31.9661ZM140.762 25.5267V31.9827H138.468V25.9748C138.468 24.8462 137.939 24.3151 136.949 24.3151C135.86 24.3151 135.117 24.979 135.117 26.6054V31.9827H132.822V25.9748C132.822 24.8462 132.245 24.3151 131.287 24.3151C130.214 24.3151 129.472 24.9956 129.472 26.5888V31.9827H127.194V22.4065H129.455V23.8172C129.752 23.0538 130.512 22.2405 131.948 22.2405C133.219 22.2405 134.16 22.8214 134.605 23.8172C134.968 23.1367 135.695 22.2405 137.411 22.2405C139.475 22.2239 140.762 23.4521 140.762 25.5267ZM62.5052 38.7209C61.6964 38.7209 61.5479 39.1358 61.5479 39.6835V40.3142H63.2976V42.3888H61.5479V49.8738H59.2535V42.3888H57.8339V40.3308H59.2535V39.8163C59.2535 37.2438 60.3759 36.6962 62.1586 36.6962H63.5452V38.7375H62.5052V38.7209ZM74.0102 45.1106C74.0102 48.2308 72.0625 50.0896 69.2729 50.0896C66.4998 50.0896 64.552 48.2308 64.552 45.1106C64.552 42.0071 66.4998 40.1482 69.2729 40.1482C72.0625 40.1482 74.0102 42.0071 74.0102 45.1106ZM66.9125 45.1106C66.9125 47.0358 67.9359 47.9486 69.3224 47.9486C70.808 47.9486 71.6663 46.903 71.6663 45.1106C71.6663 43.202 70.6429 42.2892 69.2564 42.2892C67.7708 42.2892 66.9125 43.3348 66.9125 45.1106ZM84.5248 49.8904H82.2964V48.5295C81.7352 49.4257 80.9594 49.99 79.6554 49.99C77.6581 49.99 76.2386 48.7121 76.2386 46.2558V40.3308H78.533V46.1064C78.533 47.4009 79.2097 47.9652 80.2001 47.9652C81.273 47.9652 82.2469 47.1686 82.2469 44.9612V40.3308H84.5413V49.8904H84.5248ZM95.9307 43.7165V49.8904H93.6363V43.9157C93.6363 42.8369 92.9926 42.2062 91.8536 42.2062C90.4836 42.2062 89.7573 43.1522 89.7573 44.7123V49.8738H87.4629V40.3308H89.7408V41.7249C90.269 40.8287 91.0613 40.1648 92.6459 40.1648C94.8248 40.1482 95.9307 41.4428 95.9307 43.7165ZM107.7 49.8904H105.438V48.4299C104.927 49.5253 103.738 50.1062 102.418 50.1062C100.09 50.1062 98.1426 48.4631 98.1426 45.1106C98.1426 41.8079 100.09 40.1648 102.418 40.1648C103.656 40.1648 104.828 40.6627 105.389 41.5921V36.6796H107.683V49.8904H107.7ZM105.455 45.094C105.455 43.119 104.2 42.1896 102.962 42.1896C101.625 42.1896 100.486 43.1356 100.486 45.094C100.486 47.0192 101.625 47.9818 102.962 47.9818C104.2 47.9818 105.455 47.0524 105.455 45.094ZM118.297 43.4676V49.907H116.052V48.5129C115.309 49.7411 114.071 50.1062 113.064 50.1062C111.546 50.1062 109.994 49.293 109.994 47.2682C109.994 44.8783 112.156 44.4634 113.031 44.3306L115.012 44.0484C115.441 43.9986 116.135 43.7995 116.135 43.0194C116.135 42.256 115.458 41.9739 114.583 41.9739C113.312 41.9739 112.685 42.5713 112.586 43.3846H110.39C110.638 41.1606 112.536 40.1482 114.682 40.1482C116.943 40.1482 118.297 41.2104 118.297 43.4676ZM116.085 45.8741V45.3762C115.788 45.5089 115.474 45.5753 114.946 45.6583L113.824 45.8077C113.229 45.8741 112.289 46.1396 112.289 47.0856C112.289 47.8159 112.85 48.181 113.675 48.181C115.012 48.181 116.085 47.2018 116.085 45.8741ZM126.038 49.8904H124.536C122.737 49.8904 121.615 49.3261 121.615 46.7703V42.4054H119.881V40.3308H121.615V38.1732L123.909 37.5426V40.3308H125.807V42.4054H123.909V46.7039C123.909 47.3678 124.091 47.8491 125.048 47.8491H126.022V49.8904H126.038ZM128.036 36.4306H130.479V39.0529H128.036V36.4306ZM128.102 49.8904H130.396V40.3308H128.102V49.8904ZM142.099 45.1106C142.099 48.2308 140.151 50.0896 137.362 50.0896C134.589 50.0896 132.641 48.2308 132.641 45.1106C132.641 42.0071 134.589 40.1482 137.362 40.1482C140.151 40.1482 142.099 42.0071 142.099 45.1106ZM135.001 45.1106C135.001 47.0358 136.025 47.9486 137.411 47.9486C138.897 47.9486 139.755 46.903 139.755 45.1106C139.755 43.202 138.732 42.2892 137.345 42.2892C135.86 42.2892 135.001 43.3348 135.001 45.1106ZM152.861 43.7165V49.8904H150.567V43.9157C150.567 42.8369 149.923 42.2062 148.784 42.2062C147.414 42.2062 146.688 43.1522 146.688 44.7123V49.8738H144.393V40.3308H146.671V41.7249C147.2 40.8287 147.992 40.1648 149.576 40.1648C151.739 40.1482 152.861 41.4428 152.861 43.7165Z" fill="#22222D"/>
</svg>
